<?xml version="1.0" encoding="utf-8"?>
<!-- Generator: Adobe Illustrator 16.0.0, SVG Export Plug-In . SVG Version: 6.00 Build 0)  -->
<!DOCTYPE svg PUBLIC "-//W3C//DTD SVG 1.1//EN" "http://www.w3.org/Graphics/SVG/1.1/DTD/svg11.dtd">
<svg version="1.1" id="Layer_1" xmlns="http://www.w3.org/2000/svg" xmlns:xlink="http://www.w3.org/1999/xlink" x="0px" y="0px"
	 width="911.321px" height="253.068px" viewBox="25.739 137.25 911.321 253.068"
	 enable-background="new 25.739 137.25 911.321 253.068" xml:space="preserve">
<g enable-background="new    ">
	<path fill="#EEEEEE" d="M116.669,390.318c-50.146,0-90.931-19.056-90.931-68.532v-115.67c0-49.143,40.785-68.866,90.931-68.866
		c50.48,0,91.265,19.724,91.265,68.866v115.67C207.935,371.263,166.815,390.318,116.669,390.318z M173.835,206.116
		c0-34.768-31.424-41.788-57.166-41.788c-25.741,0-57.5,7.021-57.5,41.788v115.67c0,34.768,31.759,41.453,57.5,41.453
		c25.742,0,57.166-6.686,57.166-41.453V206.116z"/>
	<path fill="#EEEEEE" d="M287.837,366.583c-2.674-1.338,0-7.689,4.346-15.378c5.015-8.692,7.354-14.041,9.695-12.704
		c15.378,9.026,40.117,24.738,64.855,24.738c23.736,0,38.779-8.023,45.131-25.407c8.023-22.063-5.683-43.125-27.748-54.157
		l-55.495-27.413c-27.079-13.372-41.788-39.782-36.773-67.863c8.358-46.803,53.155-51.148,77.225-51.148
		c23.735,0,46.468,6.686,68.198,16.715c3.677,1.672,2.674,7.689-0.669,15.712c-3.677,8.692-6.352,15.378-10.698,13.707
		c-0.334,0-35.102-19.056-57.166-19.056c-14.041,0-34.099,1.672-41.788,21.729c-8.357,22.064,6.352,34.769,20.059,41.454
		l58.503,28.082c30.087,14.375,52.486,44.128,40.785,85.582c-11.366,40.45-51.817,49.143-83.242,49.143
		C326.283,390.318,290.846,368.589,287.837,366.583z"/>
	<path fill="#EEEEEE" d="M527.201,366.583c-2.675-1.338,0-7.689,4.346-15.378c5.015-8.692,7.354-14.041,9.694-12.704
		c15.379,9.026,40.117,24.738,64.855,24.738c23.735,0,38.779-8.023,45.131-25.407c8.023-22.063-5.683-43.125-27.747-54.157
		l-55.494-27.413c-27.079-13.372-41.788-39.782-36.773-67.863c8.357-46.803,53.154-51.148,77.224-51.148
		c23.736,0,46.469,6.686,68.198,16.715c3.678,1.672,2.675,7.689-0.668,15.712c-3.678,8.692-6.353,15.378-10.698,13.707
		c-0.334,0-35.102-19.056-57.166-19.056c-14.041,0-34.099,1.672-41.788,21.729c-8.357,22.064,6.352,34.769,20.059,41.454
		l58.503,28.082c30.088,14.375,52.486,44.128,40.785,85.582c-11.366,40.45-51.817,49.143-83.241,49.143
		C565.646,390.318,530.21,368.589,527.201,366.583z"/>
	<path fill="#EEEEEE" d="M863.513,298.719H807.35v85.248c0,3.677-12.035,3.677-16.716,3.677c-5.349,0-16.715-0.334-16.715-3.677
		V141.261h83.242c50.146,0,79.898,19.725,79.898,68.867v19.39C937.06,239.213,936.726,298.719,863.513,298.719z M903.964,210.128
		c0-34.768-23.401-41.788-49.144-41.788H807.35v103.635h56.163c6.352,0,40.451-1.672,40.451-42.123V210.128z"/>
</g>
</svg>
